<?xml version="1.0" standalone="no"?>
<!DOCTYPE svg PUBLIC "-//W3C//DTD SVG 20010904//EN"
 "http://www.w3.org/TR/2001/REC-SVG-20010904/DTD/svg10.dtd">
<svg version="1.0" xmlns="http://www.w3.org/2000/svg"
 width="415.000000pt" height="188.000000pt" viewBox="0 0 415.000000 188.000000"
 preserveAspectRatio="xMidYMid meet">

<g transform="translate(0.000000,188.000000) scale(0.100000,-0.100000)"
fill="#000000" stroke="none">
<path d="M815 1240 c103 -205 150 -341 163 -468 l7 -62 50 41 c60 49 116 79
149 79 33 0 40 -14 26 -55 -16 -49 -88 -108 -168 -138 -69 -25 -213 -52 -235
-44 -8 3 -14 32 -15 77 -3 68 -2 72 17 66 12 -3 31 -9 44 -12 12 -4 34 -15 48
-25 l26 -19 -13 68 c-40 199 -32 179 -73 186 -20 3 -48 6 -63 6 -16 0 -28 4
-28 9 0 5 -3 17 -7 26 -5 15 -1 17 33 13 21 -3 47 -8 56 -12 13 -6 9 11 -19
83 l-37 91 -52 0 c-37 0 -53 4 -58 15 -7 20 16 29 50 21 24 -6 24 -5 -16 55
-38 55 -45 60 -68 54 -30 -7 -108 -50 -116 -64 -5 -7 33 -88 51 -110 2 -3 16
8 32 23 24 23 30 25 40 12 11 -13 7 -17 -21 -30 -63 -28 -62 -26 -42 -110 10
-42 20 -76 23 -76 3 0 28 11 56 25 43 22 50 23 58 10 12 -23 1 -45 -22 -45
-12 0 -39 -7 -61 -16 -29 -12 -39 -21 -36 -33 2 -9 7 -55 11 -103 l7 -88 29
15 c16 9 49 18 74 22 l45 6 0 -73 0 -72 -52 7 c-143 18 -258 63 -350 138 l-57
46 16 -52 c52 -179 193 -314 377 -363 279 -74 557 170 556 489 -1 261 -175
455 -443 493 l-48 6 56 -112z"/>
<path d="M2407 593 c-4 -3 -7 -11 -7 -17 0 -6 5 -5 12 2 6 6 9 14 7 17 -3 3
-9 2 -12 -2z"/>
<path d="M2700 580 c-6 -11 -8 -20 -6 -20 3 0 10 9 16 20 6 11 8 20 6 20 -3 0
-10 -9 -16 -20z"/>
<path d="M2036 553 c-6 -14 -5 -15 5 -6 7 7 10 15 7 18 -3 3 -9 -2 -12 -12z"/>
<path d="M2300 554 c0 -8 5 -12 10 -9 6 4 8 11 5 16 -9 14 -15 11 -15 -7z"/>
<path d="M2445 559 c-4 -6 -5 -12 -2 -15 2 -3 7 2 10 11 7 17 1 20 -8 4z"/>
<path d="M2490 550 c-6 -11 -8 -20 -6 -20 3 0 10 9 16 20 6 11 8 20 6 20 -3 0
-10 -9 -16 -20z"/>
<path d="M2827 563 c-4 -3 -7 -11 -7 -17 0 -6 5 -5 12 2 6 6 9 14 7 17 -3 3
-9 2 -12 -2z"/>
<path d="M2140 535 c-7 -9 -8 -15 -2 -15 5 0 12 7 16 15 3 8 4 15 2 15 -2 0
-9 -7 -16 -15z"/>
<path d="M2725 540 c-3 -5 -1 -10 4 -10 6 0 11 5 11 10 0 6 -2 10 -4 10 -3 0
-8 -4 -11 -10z"/>
<path d="M2320 510 c-9 -6 -10 -10 -3 -10 6 0 15 5 18 10 8 12 4 12 -15 0z"/>
</g>
</svg>
